<?xml version="1.0" encoding="utf-8" standalone="no"?>
<!DOCTYPE svg PUBLIC "-//W3C//DTD SVG 1.1//EN"
  "http://www.w3.org/Graphics/SVG/1.1/DTD/svg11.dtd">
<!-- Created with matplotlib (https://matplotlib.org/) -->
<svg height="504pt" version="1.1" viewBox="0 0 504 504" width="504pt" xmlns="http://www.w3.org/2000/svg" xmlns:xlink="http://www.w3.org/1999/xlink">
 <defs>
  <style type="text/css">
*{stroke-linecap:butt;stroke-linejoin:round;}
  </style>
 </defs>
 <g id="figure_1">
  <g id="patch_1">
   <path d="M 0 504 
L 504 504 
L 504 0 
L 0 0 
z
" style="fill:#ffffff;"/>
  </g>
  <g id="axes_1">
   <g id="patch_2">
    <path d="M 63 441 
L 453.6 441 
L 453.6 60.48 
L 63 60.48 
z
" style="fill:#ffffff;"/>
   </g>
   <g id="PathCollection_1"/>
   <g id="PathCollection_2"/>
   <g id="PathCollection_3"/>
   <g id="PathCollection_4"/>
   <g id="PathCollection_5"/>
   <g id="PathCollection_6"/>
   <g id="PathCollection_7"/>
   <g id="PathCollection_8"/>
   <g id="PathCollection_9"/>
   <g id="PathCollection_10"/>
   <g id="PathCollection_11"/>
   <g id="PathCollection_12"/>
   <g id="PathCollection_13"/>
   <g id="PathCollection_14"/>
   <g id="PathCollection_15"/>
   <g id="line2d_1">
    <path clip-path="url(#p4febfddff1)" d="M 80.754545 357.138111 
L 84.341322 359.600267 
L 87.928099 361.997503 
L 91.514876 364.329819 
L 95.101653 366.597215 
L 98.68843 368.799692 
L 102.275207 370.937249 
L 105.861983 373.009886 
L 109.44876 375.017604 
L 113.035537 376.960402 
L 116.622314 378.83828 
L 120.209091 380.651239 
L 123.795868 382.399277 
L 127.382645 384.082397 
L 130.969421 385.700596 
L 134.556198 387.253876 
L 138.142975 388.742235 
L 141.729752 390.165676 
L 145.316529 391.524196 
L 148.903306 392.817797 
L 152.490083 394.046478 
L 156.07686 395.21024 
L 159.663636 396.309081 
L 163.250413 397.343003 
L 166.83719 398.312005 
L 170.423967 399.216088 
L 174.010744 400.055251 
L 177.597521 400.829494 
L 181.184298 401.538817 
L 184.771074 402.183221 
L 188.357851 402.762705 
L 191.944628 403.277269 
L 195.531405 403.726914 
L 199.118182 404.111639 
L 202.704959 404.431444 
L 206.291736 404.686329 
L 209.878512 404.876295 
L 213.465289 405.001341 
L 217.052066 405.061467 
L 220.638843 405.056674 
L 224.22562 404.986961 
L 227.812397 404.852328 
L 231.399174 404.652776 
L 234.98595 404.388303 
L 238.572727 404.058911 
L 242.159504 403.6646 
L 245.746281 403.205368 
L 249.333058 402.681217 
L 252.919835 402.092146 
L 256.506612 401.438156 
L 260.093388 400.719246 
L 263.680165 399.935416 
L 267.266942 399.086666 
L 270.853719 398.172997 
L 274.440496 397.194408 
L 278.027273 396.150899 
L 281.61405 395.042471 
L 285.200826 393.869122 
L 288.787603 392.630854 
L 292.37438 391.327667 
L 295.961157 389.95956 
L 299.547934 388.526533 
L 303.134711 387.028586 
L 306.721488 385.465719 
L 310.308264 383.837933 
L 313.895041 382.145227 
L 317.481818 380.387602 
L 321.068595 378.565056 
L 324.655372 376.677591 
L 328.242149 374.725207 
L 331.828926 372.707902 
L 335.415702 370.625678 
L 339.002479 368.478534 
L 342.589256 366.266471 
L 346.176033 363.989487 
L 349.76281 361.647585 
L 353.349587 359.240762 
L 356.936364 356.769019 
L 360.52314 354.232357 
L 364.109917 351.630776 
L 367.696694 348.964274 
L 371.283471 346.232853 
L 374.870248 343.436512 
L 378.457025 340.575251 
L 382.043802 337.649071 
L 385.630579 334.657971 
L 389.217355 331.601951 
L 392.804132 328.481011 
L 396.390909 325.295152 
L 399.977686 322.044373 
L 403.564463 318.728675 
L 407.15124 315.348056 
L 410.738017 311.902518 
L 414.324793 308.39206 
L 417.91157 304.816683 
L 421.498347 301.176386 
L 425.085124 297.471169 
L 428.671901 293.701032 
L 432.258678 289.865976 
L 435.845455 285.966 
" style="fill:none;stroke:#1f77b4;stroke-linecap:square;stroke-width:2.5;"/>
   </g>
   <g id="matplotlib.axis_1">
    <g id="xtick_1">
     <g id="line2d_2">
      <defs>
       <path d="M 0 0 
L 0 6 
" id="mff9c93525e" style="stroke:#000000;stroke-width:1.25;"/>
      </defs>
      <g>
       <use style="stroke:#000000;stroke-width:1.25;" x="80.754545" xlink:href="#mff9c93525e" y="441"/>
      </g>
     </g>
     <g id="text_1">
      <text style="font-family:Tahoma;font-size:16.5px;font-style:normal;font-weight:normal;text-anchor:middle;" transform="rotate(-0, 80.754545, 463.037422)" x="80.754545" y="463.037422">4</text>
     </g>
    </g>
    <g id="xtick_2">
     <g id="line2d_3">
      <g>
       <use style="stroke:#000000;stroke-width:1.25;" x="139.936364" xlink:href="#mff9c93525e" y="441"/>
      </g>
     </g>
     <g id="text_2">
      <text style="font-family:Tahoma;font-size:16.5px;font-style:normal;font-weight:normal;text-anchor:middle;" transform="rotate(-0, 139.936364, 463.037422)" x="139.936364" y="463.037422">5</text>
     </g>
    </g>
    <g id="xtick_3">
     <g id="line2d_4">
      <g>
       <use style="stroke:#000000;stroke-width:1.25;" x="199.118182" xlink:href="#mff9c93525e" y="441"/>
      </g>
     </g>
     <g id="text_3">
      <text style="font-family:Tahoma;font-size:16.5px;font-style:normal;font-weight:normal;text-anchor:middle;" transform="rotate(-0, 199.118182, 463.037422)" x="199.118182" y="463.037422">6</text>
     </g>
    </g>
    <g id="xtick_4">
     <g id="line2d_5">
      <g>
       <use style="stroke:#000000;stroke-width:1.25;" x="258.3" xlink:href="#mff9c93525e" y="441"/>
      </g>
     </g>
     <g id="text_4">
      <text style="font-family:Tahoma;font-size:16.5px;font-style:normal;font-weight:normal;text-anchor:middle;" transform="rotate(-0, 258.3, 463.037422)" x="258.3" y="463.037422">7</text>
     </g>
    </g>
    <g id="xtick_5">
     <g id="line2d_6">
      <g>
       <use style="stroke:#000000;stroke-width:1.25;" x="317.481818" xlink:href="#mff9c93525e" y="441"/>
      </g>
     </g>
     <g id="text_5">
      <text style="font-family:Tahoma;font-size:16.5px;font-style:normal;font-weight:normal;text-anchor:middle;" transform="rotate(-0, 317.481818, 463.037422)" x="317.481818" y="463.037422">8</text>
     </g>
    </g>
    <g id="xtick_6">
     <g id="line2d_7">
      <g>
       <use style="stroke:#000000;stroke-width:1.25;" x="376.663636" xlink:href="#mff9c93525e" y="441"/>
      </g>
     </g>
     <g id="text_6">
      <text style="font-family:Tahoma;font-size:16.5px;font-style:normal;font-weight:normal;text-anchor:middle;" transform="rotate(-0, 376.663636, 463.037422)" x="376.663636" y="463.037422">9</text>
     </g>
    </g>
    <g id="xtick_7">
     <g id="line2d_8">
      <g>
       <use style="stroke:#000000;stroke-width:1.25;" x="435.845455" xlink:href="#mff9c93525e" y="441"/>
      </g>
     </g>
     <g id="text_7">
      <text style="font-family:Tahoma;font-size:16.5px;font-style:normal;font-weight:normal;text-anchor:middle;" transform="rotate(-0, 435.845455, 463.037422)" x="435.845455" y="463.037422">10</text>
     </g>
    </g>
    <g id="text_8">
     <!-- Hcn1 mRNA ($log_2$ CPM+1) -->
     <g transform="translate(80.25 493.158047)">
      <text>
       <tspan style="font-family:Tahoma;font-size:30px;font-style:regular;font-weight:regular;" x="0 20.258789 34.101562 50.830078 67.207031 76.582031 101.777344 120.395508 140.419922 158.408203 167.783203 239.181152 248.556152 266.57373 283.111816 306.227051 328.053223 344.430176" y="-0.203125">Hcn1 mRNA ( CPM+1)</tspan>
       <tspan style="font-family:DejaVu Sans;font-size:30px;font-style:oblique;font-weight:oblique;" x="179.267578 187.602539 205.957031" y="-0.203125">log</tspan>
       <tspan style="font-family:DejaVu Sans;font-size:21px;font-style:book;font-weight:book;" x="225" y="4.71875">2</tspan>
      </text>
     </g>
    </g>
   </g>
   <g id="matplotlib.axis_2">
    <g id="ytick_1">
     <g id="line2d_9">
      <defs>
       <path d="M 0 0 
L -6 0 
" id="m813f87daf5" style="stroke:#000000;stroke-width:1.25;"/>
      </defs>
      <g>
       <use style="stroke:#000000;stroke-width:1.25;" x="63" xlink:href="#m813f87daf5" y="423.819381"/>
      </g>
     </g>
     <g id="text_9">
      <text style="font-family:Tahoma;font-size:16.5px;font-style:normal;font-weight:normal;text-anchor:end;" transform="rotate(-0, 53.5, 430.088092)" x="53.5" y="430.088092">0.000</text>
     </g>
    </g>
    <g id="ytick_2">
     <g id="line2d_10">
      <g>
       <use style="stroke:#000000;stroke-width:1.25;" x="63" xlink:href="#m813f87daf5" y="341.377121"/>
      </g>
     </g>
     <g id="text_10">
      <text style="font-family:Tahoma;font-size:16.5px;font-style:normal;font-weight:normal;text-anchor:end;" transform="rotate(-0, 53.5, 347.645832)" x="53.5" y="347.645832">0.001</text>
     </g>
    </g>
    <g id="ytick_3">
     <g id="line2d_11">
      <g>
       <use style="stroke:#000000;stroke-width:1.25;" x="63" xlink:href="#m813f87daf5" y="258.934862"/>
      </g>
     </g>
     <g id="text_11">
      <text style="font-family:Tahoma;font-size:16.5px;font-style:normal;font-weight:normal;text-anchor:end;" transform="rotate(-0, 53.5, 265.203572)" x="53.5" y="265.203572">0.002</text>
     </g>
    </g>
    <g id="ytick_4">
     <g id="line2d_12">
      <g>
       <use style="stroke:#000000;stroke-width:1.25;" x="63" xlink:href="#m813f87daf5" y="176.492602"/>
      </g>
     </g>
     <g id="text_12">
      <text style="font-family:Tahoma;font-size:16.5px;font-style:normal;font-weight:normal;text-anchor:end;" transform="rotate(-0, 53.5, 182.761313)" x="53.5" y="182.761313">0.003</text>
     </g>
    </g>
    <g id="ytick_5">
     <g id="line2d_13">
      <g>
       <use style="stroke:#000000;stroke-width:1.25;" x="63" xlink:href="#m813f87daf5" y="94.050342"/>
      </g>
     </g>
     <g id="text_13">
      <text style="font-family:Tahoma;font-size:16.5px;font-style:normal;font-weight:normal;text-anchor:end;" transform="rotate(-0, 53.5, 100.319053)" x="53.5" y="100.319053">0.004</text>
     </g>
    </g>
    <g id="text_14">
     <!-- Ih Conductance (pS/$\mu m^2$) -->
     <g transform="translate(2.171719 425.19)rotate(-90)">
      <text>
       <tspan style="font-family:Tahoma;font-size:30px;font-style:regular;font-weight:regular;" x="0 11.191406 27.919922 37.294922 55.3125 71.601562 88.330078 104.912109 121.640625 135.483398 145.517578 161.264648 177.993164 191.835938 207.626953 217.001953 228.486328 245.068359 261.782227 337.138184" y="-0.9296875">Ih Conductance (pS/)</tspan>
       <tspan style="font-family:DejaVu Sans;font-size:30px;font-style:oblique;font-weight:oblique;" x="273.251953 292.338867" y="-0.9296875">μm</tspan>
       <tspan style="font-family:DejaVu Sans;font-size:21px;font-style:book;font-weight:book;" x="322.957031" y="-12.4140625">2</tspan>
      </text>
     </g>
    </g>
   </g>
   <g id="LineCollection_1">
    <path clip-path="url(#p4febfddff1)" d="M 200.464363 400.210588 
L 200.464363 321.640245 
" style="fill:none;stroke:#ff7f0e;stroke-opacity:0.5;stroke-width:2.5;"/>
    <path clip-path="url(#p4febfddff1)" d="M 284.959264 418.033215 
L 284.959264 399.047992 
" style="fill:none;stroke:#ff7f0e;stroke-opacity:0.5;stroke-width:2.5;"/>
    <path clip-path="url(#p4febfddff1)" d="M 185.96736 416.640361 
L 185.96736 397.782183 
" style="fill:none;stroke:#ff7f0e;stroke-opacity:0.5;stroke-width:2.5;"/>
    <path clip-path="url(#p4febfddff1)" d="M 260.692608 421.443232 
L 260.692608 403.796275 
" style="fill:none;stroke:#ff7f0e;stroke-opacity:0.5;stroke-width:2.5;"/>
    <path clip-path="url(#p4febfddff1)" d="M 265.165984 405.520737 
L 265.165984 379.022809 
" style="fill:none;stroke:#ff7f0e;stroke-opacity:0.5;stroke-width:2.5;"/>
    <path clip-path="url(#p4febfddff1)" d="M 265.287952 365.690482 
L 265.287952 260.099399 
" style="fill:none;stroke:#ff7f0e;stroke-opacity:0.5;stroke-width:2.5;"/>
    <path clip-path="url(#p4febfddff1)" d="M 270.291823 406.487967 
L 270.291823 361.804547 
" style="fill:none;stroke:#ff7f0e;stroke-opacity:0.5;stroke-width:2.5;"/>
    <path clip-path="url(#p4febfddff1)" d="M 283.218535 386.054782 
L 283.218535 356.415607 
" style="fill:none;stroke:#ff7f0e;stroke-opacity:0.5;stroke-width:2.5;"/>
    <path clip-path="url(#p4febfddff1)" d="M 176.624225 423.703636 
L 176.624225 396.55818 
" style="fill:none;stroke:#ff7f0e;stroke-opacity:0.5;stroke-width:2.5;"/>
    <path clip-path="url(#p4febfddff1)" d="M 225.174677 292.568774 
L 225.174677 77.776364 
" style="fill:none;stroke:#ff7f0e;stroke-opacity:0.5;stroke-width:2.5;"/>
    <path clip-path="url(#p4febfddff1)" d="M 96.263604 411.345571 
L 96.263604 244.819185 
" style="fill:none;stroke:#ff7f0e;stroke-opacity:0.5;stroke-width:2.5;"/>
    <path clip-path="url(#p4febfddff1)" d="M 101.95031 387.400383 
L 101.95031 323.094216 
" style="fill:none;stroke:#ff7f0e;stroke-opacity:0.5;stroke-width:2.5;"/>
    <path clip-path="url(#p4febfddff1)" d="M 238.145518 351.804115 
L 238.145518 271.437848 
" style="fill:none;stroke:#ff7f0e;stroke-opacity:0.5;stroke-width:2.5;"/>
    <path clip-path="url(#p4febfddff1)" d="M 244.496159 387.469262 
L 244.496159 331.166391 
" style="fill:none;stroke:#ff7f0e;stroke-opacity:0.5;stroke-width:2.5;"/>
    <path clip-path="url(#p4febfddff1)" d="M 272.678244 400.331877 
L 272.678244 348.120406 
" style="fill:none;stroke:#ff7f0e;stroke-opacity:0.5;stroke-width:2.5;"/>
   </g>
   <g id="line2d_14"/>
   <g id="patch_3">
    <path d="M 63 441 
L 63 60.48 
" style="fill:none;stroke:#000000;stroke-linecap:square;stroke-linejoin:miter;stroke-width:1.25;"/>
   </g>
   <g id="patch_4">
    <path d="M 63 441 
L 453.6 441 
" style="fill:none;stroke:#000000;stroke-linecap:square;stroke-linejoin:miter;stroke-width:1.25;"/>
   </g>
   <g id="PathCollection_16">
    <defs>
     <path d="M 0 5 
C 1.326016 5 2.597899 4.473168 3.535534 3.535534 
C 4.473168 2.597899 5 1.326016 5 0 
C 5 -1.326016 4.473168 -2.597899 3.535534 -3.535534 
C 2.597899 -4.473168 1.326016 -5 0 -5 
C -1.326016 -5 -2.597899 -4.473168 -3.535534 -3.535534 
C -4.473168 -2.597899 -5 -1.326016 -5 0 
C -5 1.326016 -4.473168 2.597899 -3.535534 3.535534 
C -2.597899 4.473168 -1.326016 5 0 5 
z
" id="C0_0_9839765251"/>
    </defs>
    <g clip-path="url(#p4febfddff1)">
     <use style="fill:#df6bc6;stroke:#ffffff;stroke-width:0.75;" x="200.464363" xlink:href="#C0_0_9839765251" y="360.925417"/>
    </g>
    <g clip-path="url(#p4febfddff1)">
     <use style="fill:#d12dad;stroke:#ffffff;stroke-width:0.75;" x="284.959264" xlink:href="#C0_0_9839765251" y="408.540604"/>
    </g>
    <g clip-path="url(#p4febfddff1)">
     <use style="fill:#43bca9;stroke:#ffffff;stroke-width:0.75;" x="185.96736" xlink:href="#C0_0_9839765251" y="407.211272"/>
    </g>
    <g clip-path="url(#p4febfddff1)">
     <use style="fill:#70849a;stroke:#ffffff;stroke-width:0.75;" x="260.692608" xlink:href="#C0_0_9839765251" y="412.619754"/>
    </g>
    <g clip-path="url(#p4febfddff1)">
     <use style="fill:#8e2331;stroke:#ffffff;stroke-width:0.75;" x="265.165984" xlink:href="#C0_0_9839765251" y="392.271773"/>
    </g>
    <g clip-path="url(#p4febfddff1)">
     <use style="fill:#cd3449;stroke:#ffffff;stroke-width:0.75;" x="265.287952" xlink:href="#C0_0_9839765251" y="312.894941"/>
    </g>
    <g clip-path="url(#p4febfddff1)">
     <use style="fill:#db707e;stroke:#ffffff;stroke-width:0.75;" x="270.291823" xlink:href="#C0_0_9839765251" y="384.146257"/>
    </g>
    <g clip-path="url(#p4febfddff1)">
     <use style="fill:#ebb1b9;stroke:#ffffff;stroke-width:0.75;" x="283.218535" xlink:href="#C0_0_9839765251" y="371.235194"/>
    </g>
    <g clip-path="url(#p4febfddff1)">
     <use style="fill:#009b81;stroke:#ffffff;stroke-width:0.75;" x="176.624225" xlink:href="#C0_0_9839765251" y="410.130908"/>
    </g>
    <g clip-path="url(#p4febfddff1)">
     <use style="fill:#00e5bf;stroke:#ffffff;stroke-width:0.75;" x="225.174677" xlink:href="#C0_0_9839765251" y="185.172569"/>
    </g>
    <g clip-path="url(#p4febfddff1)">
     <use style="fill:#59b7b4;stroke:#ffffff;stroke-width:0.75;" x="96.263604" xlink:href="#C0_0_9839765251" y="328.082378"/>
    </g>
    <g clip-path="url(#p4febfddff1)">
     <use style="fill:#65aa8a;stroke:#ffffff;stroke-width:0.75;" x="101.95031" xlink:href="#C0_0_9839765251" y="355.247299"/>
    </g>
    <g clip-path="url(#p4febfddff1)">
     <use style="fill:#b35f1f;stroke:#ffffff;stroke-width:0.75;" x="238.145518" xlink:href="#C0_0_9839765251" y="311.620981"/>
    </g>
    <g clip-path="url(#p4febfddff1)">
     <use style="fill:#dd8440;stroke:#ffffff;stroke-width:0.75;" x="244.496159" xlink:href="#C0_0_9839765251" y="359.317827"/>
    </g>
    <g clip-path="url(#p4febfddff1)">
     <use style="fill:#e9b085;stroke:#ffffff;stroke-width:0.75;" x="272.678244" xlink:href="#C0_0_9839765251" y="374.226142"/>
    </g>
   </g>
   <g id="legend_1">
    <g id="patch_5">
     <path d="M 476.13 418.685156 
L 658.218281 418.685156 
Q 661.218281 418.685156 661.218281 415.685156 
L 661.218281 63.48 
Q 661.218281 60.48 658.218281 60.48 
L 476.13 60.48 
Q 473.13 60.48 473.13 63.48 
L 473.13 415.685156 
Q 473.13 418.685156 476.13 418.685156 
z
" style="fill:#ffffff;opacity:0.8;stroke:#cccccc;stroke-linejoin:miter;"/>
    </g>
    <g id="text_15">
     <text style="font-family:Tahoma;font-size:18px;font-style:normal;font-weight:normal;text-anchor:start;" transform="rotate(-0, 526.647422, 80.157188)" x="526.647422" y="80.157188">Cell Types</text>
    </g>
    <g id="PathCollection_17">
     <defs>
      <path d="M 0 3 
C 0.795609 3 1.55874 2.683901 2.12132 2.12132 
C 2.683901 1.55874 3 0.795609 3 0 
C 3 -0.795609 2.683901 -1.55874 2.12132 -2.12132 
C 1.55874 -2.683901 0.795609 -3 0 -3 
C -0.795609 -3 -1.55874 -2.683901 -2.12132 -2.12132 
C -2.683901 -1.55874 -3 -0.795609 -3 0 
C -3 0.795609 -2.683901 1.55874 -2.12132 2.12132 
C -1.55874 2.683901 -0.795609 3 0 3 
z
" id="maf0617cd18" style="stroke:#df6bc6;"/>
     </defs>
     <g>
      <use style="fill:#df6bc6;stroke:#df6bc6;" x="494.13" xlink:href="#maf0617cd18" y="98.739844"/>
     </g>
    </g>
    <g id="text_16">
     <text style="font-family:Tahoma;font-size:15px;font-style:normal;font-weight:normal;text-anchor:start;" transform="rotate(-0, 521.13, 102.677344)" x="521.13" y="102.677344">Htr3a L2/3</text>
    </g>
    <g id="PathCollection_18">
     <defs>
      <path d="M 0 3 
C 0.795609 3 1.55874 2.683901 2.12132 2.12132 
C 2.683901 1.55874 3 0.795609 3 0 
C 3 -0.795609 2.683901 -1.55874 2.12132 -2.12132 
C 1.55874 -2.683901 0.795609 -3 0 -3 
C -0.795609 -3 -1.55874 -2.683901 -2.12132 -2.12132 
C -2.683901 -1.55874 -3 -0.795609 -3 0 
C -3 0.795609 -2.683901 1.55874 -2.12132 2.12132 
C -1.55874 2.683901 -0.795609 3 0 3 
z
" id="ma8690b00c0" style="stroke:#d12dad;"/>
     </defs>
     <g>
      <use style="fill:#d12dad;stroke:#d12dad;" x="494.13" xlink:href="#ma8690b00c0" y="120.65625"/>
     </g>
    </g>
    <g id="text_17">
     <text style="font-family:Tahoma;font-size:15px;font-style:normal;font-weight:normal;text-anchor:start;" transform="rotate(-0, 521.13, 124.59375)" x="521.13" y="124.59375">Htr3a L5</text>
    </g>
    <g id="PathCollection_19">
     <defs>
      <path d="M 0 3 
C 0.795609 3 1.55874 2.683901 2.12132 2.12132 
C 2.683901 1.55874 3 0.795609 3 0 
C 3 -0.795609 2.683901 -1.55874 2.12132 -2.12132 
C 1.55874 -2.683901 0.795609 -3 0 -3 
C -0.795609 -3 -1.55874 -2.683901 -2.12132 -2.12132 
C -2.683901 -1.55874 -3 -0.795609 -3 0 
C -3 0.795609 -2.683901 1.55874 -2.12132 2.12132 
C -1.55874 2.683901 -0.795609 3 0 3 
z
" id="m44bb1ab2c6" style="stroke:#43bca9;"/>
     </defs>
     <g>
      <use style="fill:#43bca9;stroke:#43bca9;" x="494.13" xlink:href="#m44bb1ab2c6" y="142.572656"/>
     </g>
    </g>
    <g id="text_18">
     <text style="font-family:Tahoma;font-size:15px;font-style:normal;font-weight:normal;text-anchor:start;" transform="rotate(-0, 521.13, 146.510156)" x="521.13" y="146.510156">Nr5a1 L4</text>
    </g>
    <g id="PathCollection_20">
     <defs>
      <path d="M 0 3 
C 0.795609 3 1.55874 2.683901 2.12132 2.12132 
C 2.683901 1.55874 3 0.795609 3 0 
C 3 -0.795609 2.683901 -1.55874 2.12132 -2.12132 
C 1.55874 -2.683901 0.795609 -3 0 -3 
C -0.795609 -3 -1.55874 -2.683901 -2.12132 -2.12132 
C -2.683901 -1.55874 -3 -0.795609 -3 0 
C -3 0.795609 -2.683901 1.55874 -2.12132 2.12132 
C -1.55874 2.683901 -0.795609 3 0 3 
z
" id="mbf93ad6a2e" style="stroke:#70849a;"/>
     </defs>
     <g>
      <use style="fill:#70849a;stroke:#70849a;" x="494.13" xlink:href="#mbf93ad6a2e" y="164.489063"/>
     </g>
    </g>
    <g id="text_19">
     <text style="font-family:Tahoma;font-size:15px;font-style:normal;font-weight:normal;text-anchor:start;" transform="rotate(-0, 521.13, 168.426563)" x="521.13" y="168.426563">Ntsr1 L6</text>
    </g>
    <g id="PathCollection_21">
     <defs>
      <path d="M 0 3 
C 0.795609 3 1.55874 2.683901 2.12132 2.12132 
C 2.683901 1.55874 3 0.795609 3 0 
C 3 -0.795609 2.683901 -1.55874 2.12132 -2.12132 
C 1.55874 -2.683901 0.795609 -3 0 -3 
C -0.795609 -3 -1.55874 -2.683901 -2.12132 -2.12132 
C -2.683901 -1.55874 -3 -0.795609 -3 0 
C -3 0.795609 -2.683901 1.55874 -2.12132 2.12132 
C -1.55874 2.683901 -0.795609 3 0 3 
z
" id="m6b435e30df" style="stroke:#8e2331;"/>
     </defs>
     <g>
      <use style="fill:#8e2331;stroke:#8e2331;" x="494.13" xlink:href="#m6b435e30df" y="186.405469"/>
     </g>
    </g>
    <g id="text_20">
     <text style="font-family:Tahoma;font-size:15px;font-style:normal;font-weight:normal;text-anchor:start;" transform="rotate(-0, 521.13, 190.342969)" x="521.13" y="190.342969">Pvalb L2/3</text>
    </g>
    <g id="PathCollection_22">
     <defs>
      <path d="M 0 3 
C 0.795609 3 1.55874 2.683901 2.12132 2.12132 
C 2.683901 1.55874 3 0.795609 3 0 
C 3 -0.795609 2.683901 -1.55874 2.12132 -2.12132 
C 1.55874 -2.683901 0.795609 -3 0 -3 
C -0.795609 -3 -1.55874 -2.683901 -2.12132 -2.12132 
C -2.683901 -1.55874 -3 -0.795609 -3 0 
C -3 0.795609 -2.683901 1.55874 -2.12132 2.12132 
C -1.55874 2.683901 -0.795609 3 0 3 
z
" id="m57c8d00503" style="stroke:#cd3449;"/>
     </defs>
     <g>
      <use style="fill:#cd3449;stroke:#cd3449;" x="494.13" xlink:href="#m57c8d00503" y="208.321875"/>
     </g>
    </g>
    <g id="text_21">
     <text style="font-family:Tahoma;font-size:15px;font-style:normal;font-weight:normal;text-anchor:start;" transform="rotate(-0, 521.13, 212.259375)" x="521.13" y="212.259375">Pvalb L4</text>
    </g>
    <g id="PathCollection_23">
     <defs>
      <path d="M 0 3 
C 0.795609 3 1.55874 2.683901 2.12132 2.12132 
C 2.683901 1.55874 3 0.795609 3 0 
C 3 -0.795609 2.683901 -1.55874 2.12132 -2.12132 
C 1.55874 -2.683901 0.795609 -3 0 -3 
C -0.795609 -3 -1.55874 -2.683901 -2.12132 -2.12132 
C -2.683901 -1.55874 -3 -0.795609 -3 0 
C -3 0.795609 -2.683901 1.55874 -2.12132 2.12132 
C -1.55874 2.683901 -0.795609 3 0 3 
z
" id="md2bea6cc08" style="stroke:#db707e;"/>
     </defs>
     <g>
      <use style="fill:#db707e;stroke:#db707e;" x="494.13" xlink:href="#md2bea6cc08" y="230.238281"/>
     </g>
    </g>
    <g id="text_22">
     <text style="font-family:Tahoma;font-size:15px;font-style:normal;font-weight:normal;text-anchor:start;" transform="rotate(-0, 521.13, 234.175781)" x="521.13" y="234.175781">Pvalb L5</text>
    </g>
    <g id="PathCollection_24">
     <defs>
      <path d="M 0 3 
C 0.795609 3 1.55874 2.683901 2.12132 2.12132 
C 2.683901 1.55874 3 0.795609 3 0 
C 3 -0.795609 2.683901 -1.55874 2.12132 -2.12132 
C 1.55874 -2.683901 0.795609 -3 0 -3 
C -0.795609 -3 -1.55874 -2.683901 -2.12132 -2.12132 
C -2.683901 -1.55874 -3 -0.795609 -3 0 
C -3 0.795609 -2.683901 1.55874 -2.12132 2.12132 
C -1.55874 2.683901 -0.795609 3 0 3 
z
" id="m785013969a" style="stroke:#ebb1b9;"/>
     </defs>
     <g>
      <use style="fill:#ebb1b9;stroke:#ebb1b9;" x="494.13" xlink:href="#m785013969a" y="252.154688"/>
     </g>
    </g>
    <g id="text_23">
     <text style="font-family:Tahoma;font-size:15px;font-style:normal;font-weight:normal;text-anchor:start;" transform="rotate(-0, 521.13, 256.092188)" x="521.13" y="256.092188">Pvalb L6</text>
    </g>
    <g id="PathCollection_25">
     <defs>
      <path d="M 0 3 
C 0.795609 3 1.55874 2.683901 2.12132 2.12132 
C 2.683901 1.55874 3 0.795609 3 0 
C 3 -0.795609 2.683901 -1.55874 2.12132 -2.12132 
C 1.55874 -2.683901 0.795609 -3 0 -3 
C -0.795609 -3 -1.55874 -2.683901 -2.12132 -2.12132 
C -2.683901 -1.55874 -3 -0.795609 -3 0 
C -3 0.795609 -2.683901 1.55874 -2.12132 2.12132 
C -1.55874 2.683901 -0.795609 3 0 3 
z
" id="m9eca86089d" style="stroke:#009b81;"/>
     </defs>
     <g>
      <use style="fill:#009b81;stroke:#009b81;" x="494.13" xlink:href="#m9eca86089d" y="274.071094"/>
     </g>
    </g>
    <g id="text_24">
     <text style="font-family:Tahoma;font-size:15px;font-style:normal;font-weight:normal;text-anchor:start;" transform="rotate(-0, 521.13, 278.008594)" x="521.13" y="278.008594">Rbp4 L4</text>
    </g>
    <g id="PathCollection_26">
     <defs>
      <path d="M 0 3 
C 0.795609 3 1.55874 2.683901 2.12132 2.12132 
C 2.683901 1.55874 3 0.795609 3 0 
C 3 -0.795609 2.683901 -1.55874 2.12132 -2.12132 
C 1.55874 -2.683901 0.795609 -3 0 -3 
C -0.795609 -3 -1.55874 -2.683901 -2.12132 -2.12132 
C -2.683901 -1.55874 -3 -0.795609 -3 0 
C -3 0.795609 -2.683901 1.55874 -2.12132 2.12132 
C -1.55874 2.683901 -0.795609 3 0 3 
z
" id="m25389c2cf5" style="stroke:#00e5bf;"/>
     </defs>
     <g>
      <use style="fill:#00e5bf;stroke:#00e5bf;" x="494.13" xlink:href="#m25389c2cf5" y="295.9875"/>
     </g>
    </g>
    <g id="text_25">
     <text style="font-family:Tahoma;font-size:15px;font-style:normal;font-weight:normal;text-anchor:start;" transform="rotate(-0, 521.13, 299.925)" x="521.13" y="299.925">Rbp4 L5</text>
    </g>
    <g id="PathCollection_27">
     <defs>
      <path d="M 0 3 
C 0.795609 3 1.55874 2.683901 2.12132 2.12132 
C 2.683901 1.55874 3 0.795609 3 0 
C 3 -0.795609 2.683901 -1.55874 2.12132 -2.12132 
C 1.55874 -2.683901 0.795609 -3 0 -3 
C -0.795609 -3 -1.55874 -2.683901 -2.12132 -2.12132 
C -2.683901 -1.55874 -3 -0.795609 -3 0 
C -3 0.795609 -2.683901 1.55874 -2.12132 2.12132 
C -1.55874 2.683901 -0.795609 3 0 3 
z
" id="m15dcef9810" style="stroke:#59b7b4;"/>
     </defs>
     <g>
      <use style="fill:#59b7b4;stroke:#59b7b4;" x="494.13" xlink:href="#m15dcef9810" y="317.903906"/>
     </g>
    </g>
    <g id="text_26">
     <text style="font-family:Tahoma;font-size:15px;font-style:normal;font-weight:normal;text-anchor:start;" transform="rotate(-0, 521.13, 321.841406)" x="521.13" y="321.841406">Scnn1a-Tg2 L4</text>
    </g>
    <g id="PathCollection_28">
     <defs>
      <path d="M 0 3 
C 0.795609 3 1.55874 2.683901 2.12132 2.12132 
C 2.683901 1.55874 3 0.795609 3 0 
C 3 -0.795609 2.683901 -1.55874 2.12132 -2.12132 
C 1.55874 -2.683901 0.795609 -3 0 -3 
C -0.795609 -3 -1.55874 -2.683901 -2.12132 -2.12132 
C -2.683901 -1.55874 -3 -0.795609 -3 0 
C -3 0.795609 -2.683901 1.55874 -2.12132 2.12132 
C -1.55874 2.683901 -0.795609 3 0 3 
z
" id="mb80d59c741" style="stroke:#65aa8a;"/>
     </defs>
     <g>
      <use style="fill:#65aa8a;stroke:#65aa8a;" x="494.13" xlink:href="#mb80d59c741" y="339.9"/>
     </g>
    </g>
    <g id="text_27">
     <text style="font-family:Tahoma;font-size:15px;font-style:normal;font-weight:normal;text-anchor:start;" transform="rotate(-0, 521.13, 343.8375)" x="521.13" y="343.8375">Scnn1a-Tg3 L2/3-L4</text>
    </g>
    <g id="PathCollection_29">
     <defs>
      <path d="M 0 3 
C 0.795609 3 1.55874 2.683901 2.12132 2.12132 
C 2.683901 1.55874 3 0.795609 3 0 
C 3 -0.795609 2.683901 -1.55874 2.12132 -2.12132 
C 1.55874 -2.683901 0.795609 -3 0 -3 
C -0.795609 -3 -1.55874 -2.683901 -2.12132 -2.12132 
C -2.683901 -1.55874 -3 -0.795609 -3 0 
C -3 0.795609 -2.683901 1.55874 -2.12132 2.12132 
C -1.55874 2.683901 -0.795609 3 0 3 
z
" id="m193658e97a" style="stroke:#b35f1f;"/>
     </defs>
     <g>
      <use style="fill:#b35f1f;stroke:#b35f1f;" x="494.13" xlink:href="#m193658e97a" y="361.896094"/>
     </g>
    </g>
    <g id="text_28">
     <text style="font-family:Tahoma;font-size:15px;font-style:normal;font-weight:normal;text-anchor:start;" transform="rotate(-0, 521.13, 365.833594)" x="521.13" y="365.833594">Sst L1-L2/3</text>
    </g>
    <g id="PathCollection_30">
     <defs>
      <path d="M 0 3 
C 0.795609 3 1.55874 2.683901 2.12132 2.12132 
C 2.683901 1.55874 3 0.795609 3 0 
C 3 -0.795609 2.683901 -1.55874 2.12132 -2.12132 
C 1.55874 -2.683901 0.795609 -3 0 -3 
C -0.795609 -3 -1.55874 -2.683901 -2.12132 -2.12132 
C -2.683901 -1.55874 -3 -0.795609 -3 0 
C -3 0.795609 -2.683901 1.55874 -2.12132 2.12132 
C -1.55874 2.683901 -0.795609 3 0 3 
z
" id="m0855609a4d" style="stroke:#dd8440;"/>
     </defs>
     <g>
      <use style="fill:#dd8440;stroke:#dd8440;" x="494.13" xlink:href="#m0855609a4d" y="383.8125"/>
     </g>
    </g>
    <g id="text_29">
     <text style="font-family:Tahoma;font-size:15px;font-style:normal;font-weight:normal;text-anchor:start;" transform="rotate(-0, 521.13, 387.75)" x="521.13" y="387.75">Sst L5</text>
    </g>
    <g id="PathCollection_31">
     <defs>
      <path d="M 0 3 
C 0.795609 3 1.55874 2.683901 2.12132 2.12132 
C 2.683901 1.55874 3 0.795609 3 0 
C 3 -0.795609 2.683901 -1.55874 2.12132 -2.12132 
C 1.55874 -2.683901 0.795609 -3 0 -3 
C -0.795609 -3 -1.55874 -2.683901 -2.12132 -2.12132 
C -2.683901 -1.55874 -3 -0.795609 -3 0 
C -3 0.795609 -2.683901 1.55874 -2.12132 2.12132 
C -1.55874 2.683901 -0.795609 3 0 3 
z
" id="ma8792c0237" style="stroke:#e9b085;"/>
     </defs>
     <g>
      <use style="fill:#e9b085;stroke:#e9b085;" x="494.13" xlink:href="#ma8792c0237" y="405.728906"/>
     </g>
    </g>
    <g id="text_30">
     <text style="font-family:Tahoma;font-size:15px;font-style:normal;font-weight:normal;text-anchor:start;" transform="rotate(-0, 521.13, 409.666406)" x="521.13" y="409.666406">Sst L6</text>
    </g>
   </g>
  </g>
 </g>
 <defs>
  <clipPath id="p4febfddff1">
   <rect height="380.52" width="390.6" x="63" y="60.48"/>
  </clipPath>
 </defs>
</svg>
